<svg width="690.0" height="1456.0" viewBox="0 0 690.0 1456.0" class="keymap" xmlns="http://www.w3.org/2000/svg">
<defs>/* start glyphs */
<svg id="bspc">
<svg viewBox="0 0 24 24" stroke-width="1.5" stroke="currentColor" fill="none">
<path stroke="none" d="M0 0h24v24H0z" fill="none"></path>
<path d="M20 6a1 1 0 0 1 1 1v10a1 1 0 0 1 -1 1h-11l-5 -5a1.5 1.5 0 0 1 0 -2l5 -5z"></path>
<path d="M12 10l4 4m0 -4l-4 4"></path>
</svg>

</svg>
<svg id="space">
<svg viewBox="0 0 24 24" stroke-width="1.5" stroke="currentColor" fill="none">
<path stroke="none" d="M0 0h24v24H0z" fill="none"></path>
<path d="M4 10v3a1 1 0 0 0 1 1h14a1 1 0 0 0 1 -1v-3"></path>
</svg>

</svg>
<svg id="enter">
<svg xmlns="http://www.w3.org/2000/svg" class="icon icon-tabler icon-tabler-corner-down-left" viewBox="0 0 24 24" stroke-width="2" stroke="currentColor" fill="none" stroke-linecap="round" stroke-linejoin="round"> <path stroke="none" d="M0 0h24v24H0z" fill="none"></path> <path d="M18 6v6a3 3 0 0 1 -3 3h-10l4 -4m0 8l-4 -4"></path> </svg>
</svg>
<svg id="del">
<svg class="icon icon-tabler icon-tabler-backspace" viewBox="0 0 24 24" stroke-width="2" stroke="currentColor" fill="none" stroke-linecap="round" stroke-linejoin="round" version="1.1" id="svg163" xmlns="http://www.w3.org/2000/svg" xmlns:svg="http://www.w3.org/2000/svg">
<defs id="defs167" />
<path stroke="none" d="M 24,0 H 0 v 24 h 24 z" fill="none" id="path157" />
<path d="M 4,6 A 1,1 0 0 0 3,7 v 10 a 1,1 0 0 0 1,1 h 11 l 5,-5 a 1.5,1.5 0 0 0 0,-2 L 15,6 Z" id="path159" />
<path d="m 12,10 -4,4 m 0,-4 4,4" id="path161" />
</svg>

</svg>
<svg id="vol_up">
<svg xmlns="http://www.w3.org/2000/svg" class="icon icon-tabler icon-tabler-volume" viewBox="0 0 24 24" stroke-width="2" stroke="currentColor" fill="none" stroke-linecap="round" stroke-linejoin="round">
<path stroke="none" d="M0 0h24v24H0z" fill="none"></path>
<path d="M15 8a5 5 0 0 1 0 8"></path>
<path d="M17.7 5a9 9 0 0 1 0 14"></path>
<path d="M6 15h-2a1 1 0 0 1 -1 -1v-4a1 1 0 0 1 1 -1h2l3.5 -4.5a.8 .8 0 0 1 1.5 .5v14a.8 .8 0 0 1 -1.5 .5l-3.5 -4.5"></path>
</svg>

</svg>
<svg id="left_arrow">
<svg xmlns="http://www.w3.org/2000/svg" class="icon icon-tabler icon-tabler-arrow-big-left" viewBox="0 0 24 24" stroke-width="2" stroke="currentColor" fill="none" stroke-linecap="round" stroke-linejoin="round">
<path stroke="none" d="M0 0h24v24H0z" fill="none"></path>
<path d="M20 15h-8v3.586a1 1 0 0 1 -1.707 .707l-6.586 -6.586a1 1 0 0 1 0 -1.414l6.586 -6.586a1 1 0 0 1 1.707 .707v3.586h8a1 1 0 0 1 1 1v4a1 1 0 0 1 -1 1z"></path>
</svg>

</svg>
<svg id="down_arrow">
<svg xmlns="http://www.w3.org/2000/svg" class="icon icon-tabler icon-tabler-arrow-big-down" viewBox="0 0 24 24" stroke-width="2" stroke="currentColor" fill="none" stroke-linecap="round" stroke-linejoin="round">
    <path stroke="none" d="M0 0h24v24H0z" fill="none"></path>
    <path d="M15 4v8h3.586a1 1 0 0 1 .707 1.707l-6.586 6.586a1 1 0 0 1 -1.414 0l-6.586 -6.586a1 1 0 0 1 .707 -1.707h3.586v-8a1 1 0 0 1 1 -1h4a1 1 0 0 1 1 1z"></path>
</svg>

</svg>
<svg id="up_arrow">
<svg xmlns="http://www.w3.org/2000/svg" class="icon icon-tabler icon-tabler-arrow-big-up" viewBox="0 0 24 24" stroke-width="2" stroke="currentColor" fill="none" stroke-linecap="round" stroke-linejoin="round">
    <path stroke="none" d="M0 0h24v24H0z" fill="none"></path>
    <path d="M9 20v-8h-3.586a1 1 0 0 1 -.707 -1.707l6.586 -6.586a1 1 0 0 1 1.414 0l6.586 6.586a1 1 0 0 1 -.707 1.707h-3.586v8a1 1 0 0 1 -1 1h-4a1 1 0 0 1 -1 -1z"></path>
</svg>    

</svg>
<svg id="right_arrow">
<svg xmlns="http://www.w3.org/2000/svg" class="icon icon-tabler icon-tabler-arrow-big-right" viewBox="0 0 24 24" stroke-width="2" stroke="currentColor" fill="none" stroke-linecap="round" stroke-linejoin="round">
    <path stroke="none" d="M0 0h24v24H0z" fill="none"></path>
    <path d="M4 9h8v-3.586a1 1 0 0 1 1.707 -.707l6.586 6.586a1 1 0 0 1 0 1.414l-6.586 6.586a1 1 0 0 1 -1.707 -.707v-3.586h-8a1 1 0 0 1 -1 -1v-4a1 1 0 0 1 1 -1z"></path>
</svg>

</svg>
<svg id="tab">
<svg xmlns="http://www.w3.org/2000/svg" class="icon icon-tabler icon-tabler-arrow-bar-to-right" viewBox="0 0 24 24" stroke-width="2" stroke="currentColor" fill="none" stroke-linecap="round" stroke-linejoin="round">
<path stroke="none" d="M0 0h24v24H0z" fill="none"></path>
<path d="M14 12l-10 0"></path>
<path d="M14 12l-4 4"></path>
<path d="M14 12l-4 -4"></path>
<path d="M20 4l0 16"></path>
</svg>

</svg>
<svg id="win">
<svg xmlns="http://www.w3.org/2000/svg" class="icon icon-tabler icon-tabler-brand-windows" viewBox="0 0 24 24" stroke-width="2" stroke="currentColor" fill="none" stroke-linecap="round" stroke-linejoin="round">
<path stroke="none" d="M0 0h24v24H0z" fill="none"></path>
<path d="M17.8 20l-12 -1.5c-1 -.1 -1.8 -.9 -1.8 -1.9v-9.2c0 -1 .8 -1.8 1.8 -1.9l12 -1.5c1.2 -.1 2.2 .8 2.2 1.9v12.1c0 1.2 -1.1 2.1 -2.2 1.9z"></path>
<path d="M12 5l0 14"></path>
<path d="M4 12l16 0"></path>
</svg>

</svg>
<svg id="vol_down">
<svg xmlns="http://www.w3.org/2000/svg" class="icon icon-tabler icon-tabler-volume-2" viewBox="0 0 24 24" stroke-width="2" stroke="currentColor" fill="none" stroke-linecap="round" stroke-linejoin="round">
    <path stroke="none" d="M0 0h24v24H0z" fill="none"></path>
    <path d="M15 8a5 5 0 0 1 0 8"></path>
    <path d="M6 15h-2a1 1 0 0 1 -1 -1v-4a1 1 0 0 1 1 -1h2l3.5 -4.5a.8 .8 0 0 1 1.5 .5v14a.8 .8 0 0 1 -1.5 .5l-3.5 -4.5"></path>
</svg>

</svg>
<svg id="vol_mute">
<svg xmlns="http://www.w3.org/2000/svg" class="icon icon-tabler icon-tabler-volume-off" viewBox="0 0 24 24" stroke-width="2" stroke="currentColor" fill="none" stroke-linecap="round" stroke-linejoin="round">
    <path stroke="none" d="M0 0h24v24H0z" fill="none"></path>
    <path d="M15 8a5 5 0 0 1 1.912 4.934m-1.377 2.602a5 5 0 0 1 -.535 .464"></path>
    <path d="M17.7 5a9 9 0 0 1 2.362 11.086m-1.676 2.299a9 9 0 0 1 -.686 .615"></path>
    <path d="M9.069 5.054l.431 -.554a.8 .8 0 0 1 1.5 .5v2m0 4v8a.8 .8 0 0 1 -1.5 .5l-3.5 -4.5h-2a1 1 0 0 1 -1 -1v-4a1 1 0 0 1 1 -1h2l1.294 -1.664"></path>
    <path d="M3 3l18 18"></path>
</svg>

</svg>
<svg id="line_down">
<svg xmlns="http://www.w3.org/2000/svg" class="icon icon-tabler icon-tabler-arrow-bar-down" viewBox="0 0 24 24" stroke-width="2" stroke="currentColor" fill="none" stroke-linecap="round" stroke-linejoin="round">
    <path stroke="none" d="M0 0h24v24H0z" fill="none"></path>
    <path d="M12 20l0 -10"></path>
    <path d="M12 20l4 -4"></path>
    <path d="M12 20l-4 -4"></path>
    <path d="M4 4l16 0"></path>
</svg>

</svg>
<svg id="line_up">
<svg xmlns="http://www.w3.org/2000/svg" class="icon icon-tabler icon-tabler-arrow-bar-up" viewBox="0 0 24 24" stroke-width="2" stroke="currentColor" fill="none" stroke-linecap="round" stroke-linejoin="round">
    <path stroke="none" d="M0 0h24v24H0z" fill="none"></path>
    <path d="M12 4l0 10"></path>
    <path d="M12 4l4 4"></path>
    <path d="M12 4l-4 4"></path>
    <path d="M4 20l16 0"></path>
</svg>

</svg>
<svg id="copy_down">
<svg xmlns="http://www.w3.org/2000/svg" class="icon icon-tabler icon-tabler-arrow-big-down-lines" viewBox="0 0 24 24" stroke-width="2" stroke="currentColor" fill="none" stroke-linecap="round" stroke-linejoin="round">
    <path stroke="none" d="M0 0h24v24H0z" fill="none"></path>
    <path d="M15 12h3.586a1 1 0 0 1 .707 1.707l-6.586 6.586a1 1 0 0 1 -1.414 0l-6.586 -6.586a1 1 0 0 1 .707 -1.707h3.586v-3h6v3z"></path>
    <path d="M15 3h-6"></path>
    <path d="M15 6h-6"></path>
</svg>

</svg>
<svg id="PrtScr">
<svg xmlns="http://www.w3.org/2000/svg" class="icon icon-tabler icon-tabler-screenshot" viewBox="0 0 24 24" stroke-width="2" stroke="currentColor" fill="none" stroke-linecap="round" stroke-linejoin="round">
    <path stroke="none" d="M0 0h24v24H0z" fill="none"></path>
    <path d="M7 19a2 2 0 0 1 -2 -2"></path>
    <path d="M5 13v-2"></path>
    <path d="M5 7a2 2 0 0 1 2 -2"></path>
    <path d="M11 5h2"></path>
    <path d="M17 5a2 2 0 0 1 2 2"></path>
    <path d="M19 11v2"></path>
    <path d="M19 17v4"></path>
    <path d="M21 19h-4"></path>
    <path d="M13 19h-2"></path>
</svg>

</svg>
<svg id="copy">
<svg xmlns="http://www.w3.org/2000/svg" class="icon icon-tabler icon-tabler-copy" viewBox="0 0 24 24" stroke-width="2" stroke="currentColor" fill="none" stroke-linecap="round" stroke-linejoin="round">
    <path stroke="none" d="M0 0h24v24H0z" fill="none"></path>
    <path d="M8 8m0 2a2 2 0 0 1 2 -2h8a2 2 0 0 1 2 2v8a2 2 0 0 1 -2 2h-8a2 2 0 0 1 -2 -2z"></path>
    <path d="M16 8v-2a2 2 0 0 0 -2 -2h-8a2 2 0 0 0 -2 2v8a2 2 0 0 0 2 2h2"></path>
</svg>

</svg>
<svg id="home">
<svg xmlns="http://www.w3.org/2000/svg" class="icon icon-tabler icon-tabler-home" viewBox="0 0 24 24" stroke-width="2" stroke="currentColor" fill="none" stroke-linecap="round" stroke-linejoin="round">
  <path stroke="none" d="M0 0h24v24H0z" fill="none"></path>
  <path d="M5 12l-2 0l9 -9l9 9l-2 0"></path>
  <path d="M5 12v7a2 2 0 0 0 2 2h10a2 2 0 0 0 2 -2v-7"></path>
  <path d="M9 21v-6a2 2 0 0 1 2 -2h2a2 2 0 0 1 2 2v6"></path>
</svg>

</svg>
<svg id="end">
<svg xmlns="http://www.w3.org/2000/svg" class="icon icon-tabler icon-tabler-arrow-big-right-lines" viewBox="0 0 24 24" stroke-width="2" stroke="currentColor" fill="none" stroke-linecap="round" stroke-linejoin="round">
  <path stroke="none" d="M0 0h24v24H0z" fill="none"></path>
  <path d="M12 9v-3.586a1 1 0 0 1 1.707 -.707l6.586 6.586a1 1 0 0 1 0 1.414l-6.586 6.586a1 1 0 0 1 -1.707 -.707v-3.586h-3v-6h3z"></path>
  <path d="M3 9v6"></path>
  <path d="M6 9v6"></path>
</svg>

</svg>
<svg id="reset">
<svg xmlns="http://www.w3.org/2000/svg" class="icon icon-tabler icon-tabler-repeat" viewBox="0 0 24 24" stroke-width="2" stroke="currentColor" fill="none" stroke-linecap="round" stroke-linejoin="round">
  <path stroke="none" d="M0 0h24v24H0z" fill="none"></path>
  <path d="M4 12v-3a3 3 0 0 1 3 -3h13m-3 -3l3 3l-3 3"></path>
  <path d="M20 12v3a3 3 0 0 1 -3 3h-13m3 3l-3 -3l3 -3"></path>
</svg>
</svg>
</defs>/* end glyphs */
<style>/* inherit to force styles through use tags*/
svg path {
    fill: inherit;
}
/* font and background color specifications */
svg.keymap {
    font-family: SFMono-Regular,Consolas,Liberation Mono,Menlo,monospace;
    font-size: 14px;
    font-kerning: normal;
    text-rendering: optimizeLegibility;
    fill: #24292e;
}

/* default key styling */
rect.key {
    fill: #f6f8fa;
    stroke: #c9cccf;
    stroke-width: 1;
}

/* color accent for combo boxes */
rect.combo {
    fill: #cdf;
}

/* color accent for held keys */
rect.held, rect.combo.held {
    fill: #fdd;
}

/* color accent for ghost (optional) keys */
rect.ghost, rect.combo.ghost {
    fill: #ddd;
}

text {
    text-anchor: middle;
    dominant-baseline: middle;
}

/* styling for layer labels */
text.label {
    font-weight: bold;
    text-anchor: start;
    stroke: white;
    stroke-width: 2;
    paint-order: stroke;
}

/* styling for combo tap, and key hold/shifted label text */
text.combo, text.hold, text.shifted {
    font-size: 11px;
}

text.hold {
    text-anchor: middle;
    dominant-baseline: auto;
}

text.shifted {
    text-anchor: middle;
    dominant-baseline: hanging;
}

/* styling for hold/shifted label text in combo box */
text.combo.hold, text.combo.shifted {
    font-size: 8px;
}

/* styling for combo dendrons */
path.combo {
    stroke-width: 1;
    stroke: gray;
    fill: none;
}

/* Start Tabler Icons Cleanup */
/* cannot use height/width with glyphs */
.icon-tabler > path {
    fill: inherit;
    stroke: inherit;
}
/* hide tabler's default box */
.icon-tabler > path[stroke="none"][fill="none"] {
    visibility: collapse;
}
/* End Tabler Icons Cleanup */
</style>
<g class="layer-default_layer">
<text x="30.0" y="28.0" class="label">default_layer:</text>
<rect rx="6.0" ry="6.0" x="32.0" y="58.0" width="56.0" height="52.0" class="key"/>
<text x="60.0" y="84.0" class="tap">Q</text>
<rect rx="6.0" ry="6.0" x="92.0" y="58.0" width="56.0" height="52.0" class="key"/>
<text x="120.0" y="84.0" class="tap">W</text>
<rect rx="6.0" ry="6.0" x="152.0" y="58.0" width="56.0" height="52.0" class="key"/>
<text x="180.0" y="84.0" class="tap">F</text>
<rect rx="6.0" ry="6.0" x="212.0" y="58.0" width="56.0" height="52.0" class="key"/>
<text x="240.0" y="84.0" class="tap">P</text>
<rect rx="6.0" ry="6.0" x="272.0" y="86.0" width="56.0" height="52.0" class="key"/>
<text x="300.0" y="112.0" class="tap">B</text>
<rect rx="6.0" ry="6.0" x="362.0" y="86.0" width="56.0" height="52.0" class="key"/>
<text x="390.0" y="112.0" class="tap">J</text>
<rect rx="6.0" ry="6.0" x="422.0" y="58.0" width="56.0" height="52.0" class="key"/>
<text x="450.0" y="84.0" class="tap">L</text>
<rect rx="6.0" ry="6.0" x="482.0" y="58.0" width="56.0" height="52.0" class="key"/>
<text x="510.0" y="84.0" class="tap">U</text>
<rect rx="6.0" ry="6.0" x="542.0" y="58.0" width="56.0" height="52.0" class="key"/>
<text x="570.0" y="84.0" class="tap">Y</text>
<rect rx="6.0" ry="6.0" x="602.0" y="58.0" width="56.0" height="52.0" class="key"/>
<text x="630.0" y="84.0" class="tap">&#x27;</text>
<text x="630.0" y="60.0" class="shifted">&quot;</text>
<rect rx="6.0" ry="6.0" x="32.0" y="114.0" width="56.0" height="52.0" class="key"/>
<text x="60.0" y="140.0" class="tap">A</text>
<text x="60.0" y="164.0" class="hold">Sel All</text>
<rect rx="6.0" ry="6.0" x="92.0" y="114.0" width="56.0" height="52.0" class="key"/>
<text x="120.0" y="140.0" class="tap">R</text>
<text x="120.0" y="164.0" class="hold">Alt</text>
<rect rx="6.0" ry="6.0" x="152.0" y="114.0" width="56.0" height="52.0" class="key"/>
<text x="180.0" y="140.0" class="tap">S</text>
<text x="180.0" y="164.0" class="hold">Shift</text>
<rect rx="6.0" ry="6.0" x="212.0" y="114.0" width="56.0" height="52.0" class="key"/>
<text x="240.0" y="140.0" class="tap">T</text>
<text x="240.0" y="164.0" class="hold">Ctrl</text>
<rect rx="6.0" ry="6.0" x="272.0" y="142.0" width="56.0" height="52.0" class="key"/>
<text x="300.0" y="168.0" class="tap">G</text>
<rect rx="6.0" ry="6.0" x="362.0" y="142.0" width="56.0" height="52.0" class="key"/>
<text x="390.0" y="168.0" class="tap">M</text>
<rect rx="6.0" ry="6.0" x="422.0" y="114.0" width="56.0" height="52.0" class="key"/>
<text x="450.0" y="140.0" class="tap">N</text>
<text x="450.0" y="164.0" class="hold">Ctrl</text>
<rect rx="6.0" ry="6.0" x="482.0" y="114.0" width="56.0" height="52.0" class="key"/>
<text x="510.0" y="140.0" class="tap">E</text>
<text x="510.0" y="164.0" class="hold">Shift</text>
<rect rx="6.0" ry="6.0" x="542.0" y="114.0" width="56.0" height="52.0" class="key"/>
<text x="570.0" y="140.0" class="tap">I</text>
<text x="570.0" y="164.0" class="hold">Alt</text>
<rect rx="6.0" ry="6.0" x="602.0" y="114.0" width="56.0" height="52.0" class="key"/>
<text x="630.0" y="140.0" class="tap">O</text>
<rect rx="6.0" ry="6.0" x="32.0" y="170.0" width="56.0" height="52.0" class="key"/>
<text x="60.0" y="196.0" class="tap">Z</text>
<text x="60.0" y="220.0" class="hold">Undo</text>
<rect rx="6.0" ry="6.0" x="92.0" y="170.0" width="56.0" height="52.0" class="key"/>
<text x="120.0" y="196.0" class="tap">V</text>
<text x="120.0" y="220.0" class="hold">Copy</text>
<rect rx="6.0" ry="6.0" x="152.0" y="170.0" width="56.0" height="52.0" class="key"/>
<text x="180.0" y="196.0" class="tap">C</text>
<text x="180.0" y="220.0" class="hold">Cut</text>
<rect rx="6.0" ry="6.0" x="212.0" y="170.0" width="56.0" height="52.0" class="key"/>
<text x="240.0" y="196.0" class="tap">D</text>
<text x="240.0" y="220.0" class="hold">Paste</text>
<rect rx="6.0" ry="6.0" x="422.0" y="170.0" width="56.0" height="52.0" class="key"/>
<text x="450.0" y="196.0" class="tap">H</text>
<rect rx="6.0" ry="6.0" x="482.0" y="170.0" width="56.0" height="52.0" class="key"/>
<text x="510.0" y="196.0" class="tap">,</text>
<text x="510.0" y="172.0" class="shifted">;</text>
<rect rx="6.0" ry="6.0" x="542.0" y="170.0" width="56.0" height="52.0" class="key"/>
<text x="570.0" y="196.0" class="tap">.</text>
<text x="570.0" y="172.0" class="shifted">:</text>
<rect rx="6.0" ry="6.0" x="602.0" y="170.0" width="56.0" height="52.0" class="key"/>
<text x="630.0" y="196.0" class="tap">?</text>
<text x="630.0" y="172.0" class="shifted">!</text>
<rect rx="6.0" ry="6.0" x="212.0" y="226.0" width="56.0" height="52.0" class="key"/>
<text x="240.0" y="252.0" class="tap">Nav</text>
<rect rx="6.0" ry="6.0" x="272.0" y="226.0" width="56.0" height="52.0" class="key"/>
<text x="300.0" y="252.0" class="tap">Shift</text>
<text x="300.0" y="276.0" class="hold">sticky</text>
<rect rx="6.0" ry="6.0" x="362.0" y="226.0" width="56.0" height="52.0" class="key"/>
<use href="#space" x="381.0" y="243.0" height="18" width="18.0" class="tap glyph space"/>
<text x="390.0" y="276.0" class="hold">Shift</text>
<rect rx="6.0" ry="6.0" x="422.0" y="226.0" width="56.0" height="52.0" class="key"/>
<use href="#bspc" x="441.0" y="243.0" height="18" width="18.0" class="tap glyph bspc"/>
<text x="450.0" y="276.0" class="hold">Sym</text>
<use href="#del" x="445.0" y="228.0" height="10" width="10.0" class="shifted glyph del"/>
<rect rx="6.0" ry="6.0" x="136.0" y="71.0" width="28.0" height="26.0" class="combo"/>
<text x="150.0" y="84.0" class="combo tap">ESC</text>
<rect rx="6.0" ry="6.0" x="526.0" y="127.0" width="28.0" height="26.0" class="combo"/>
<use href="#enter" x="531.0" y="131.0" height="18" width="18.0" class="combo tap glyph enter"/>
<rect rx="6.0" ry="6.0" x="136.0" y="127.0" width="28.0" height="26.0" class="combo"/>
<use href="#tab" x="141.0" y="131.0" height="18" width="18.0" class="combo tap glyph tab"/>
<rect rx="6.0" ry="6.0" x="76.0" y="183.0" width="28.0" height="26.0" class="combo"/>
<use href="#win" x="81.0" y="187.0" height="18" width="18.0" class="combo tap glyph win"/>
<rect rx="6.0" ry="6.0" x="466.0" y="127.0" width="28.0" height="26.0" class="combo"/>
<text x="480.0" y="140.0" class="combo tap">-</text>
<rect rx="6.0" ry="6.0" x="106.0" y="99.0" width="28.0" height="26.0" class="combo"/>
<text x="120.0" y="112.0" class="combo tap">(</text>
<rect rx="6.0" ry="6.0" x="166.0" y="99.0" width="28.0" height="26.0" class="combo"/>
<text x="180.0" y="112.0" class="combo tap">[</text>
<rect rx="6.0" ry="6.0" x="226.0" y="99.0" width="28.0" height="26.0" class="combo"/>
<text x="240.0" y="112.0" class="combo tap">{</text>
<rect rx="6.0" ry="6.0" x="556.0" y="99.0" width="28.0" height="26.0" class="combo"/>
<text x="570.0" y="112.0" class="combo tap">)</text>
<rect rx="6.0" ry="6.0" x="496.0" y="99.0" width="28.0" height="26.0" class="combo"/>
<text x="510.0" y="112.0" class="combo tap">]</text>
<rect rx="6.0" ry="6.0" x="436.0" y="99.0" width="28.0" height="26.0" class="combo"/>
<text x="450.0" y="112.0" class="combo tap">}</text>
<rect rx="6.0" ry="6.0" x="466.0" y="183.0" width="28.0" height="26.0" class="combo"/>
<text x="480.0" y="196.0" class="combo tap">\</text>
<rect rx="6.0" ry="6.0" x="526.0" y="183.0" width="28.0" height="26.0" class="combo"/>
<text x="540.0" y="196.0" class="combo tap">/</text>
<rect rx="6.0" ry="6.0" x="136.0" y="183.0" width="28.0" height="26.0" class="combo"/>
<text x="150.0" y="196.0" class="combo tap">X</text>
<rect rx="6.0" ry="6.0" x="286.0" y="127.0" width="28.0" height="26.0" class="combo"/>
<text x="300.0" y="140.0" class="combo tap">K</text>
<path d="M270.0,281.0 h-24.0 a6.0,6.0 0 0 1 -6.0,-6.0 v-4.333333333333332" class="combo"/>
<path d="M270.0,281.0 h24.0 a6.0,6.0 0 0 0 6.0,-6.0 v-4.333333333333332" class="combo"/>
<rect rx="6.0" ry="6.0" x="256.0" y="268.0" width="28.0" height="26.0" class="combo"/>
<text x="270.0" y="281.0" class="combo tap">Num</text>
<path d="M180.0,55.0 h-114.0 a6.0,6.0 0 0 0 -6.0,6.0 v4.333333333333332" class="combo"/>
<path d="M180.0,55.0 h114.0 a6.0,6.0 0 0 1 6.0,6.0 v32.33333333333333" class="combo"/>
<rect rx="6.0" ry="6.0" x="166.0" y="42.0" width="28.0" height="26.0" class="combo"/>
<text x="180.0" y="55.0" class="combo tap">BT</text>
</g>
<g class="layer-Nav">
<text x="30.0" y="308.0" class="label">Nav:</text>
<rect rx="6.0" ry="6.0" x="32.0" y="338.0" width="56.0" height="52.0" class="key"/>
<text x="60.0" y="364.0" class="tap">1</text>
<rect rx="6.0" ry="6.0" x="92.0" y="338.0" width="56.0" height="52.0" class="key"/>
<text x="120.0" y="364.0" class="tap">F2</text>
<rect rx="6.0" ry="6.0" x="152.0" y="338.0" width="56.0" height="52.0" class="key"/>
<text x="180.0" y="364.0" class="tap">F3</text>
<rect rx="6.0" ry="6.0" x="212.0" y="338.0" width="56.0" height="52.0" class="key"/>
<text x="240.0" y="364.0" class="tap">F4</text>
<rect rx="6.0" ry="6.0" x="272.0" y="366.0" width="56.0" height="52.0" class="key"/>
<text x="300.0" y="392.0" class="tap">F5</text>
<rect rx="6.0" ry="6.0" x="362.0" y="366.0" width="56.0" height="52.0" class="key"/>
<use href="#home" x="381.0" y="383.0" height="18" width="18.0" class="tap glyph home"/>
<rect rx="6.0" ry="6.0" x="422.0" y="338.0" width="56.0" height="52.0" class="key"/>
<use href="#line_down" x="441.0" y="355.0" height="18" width="18.0" class="tap glyph line_down"/>
<rect rx="6.0" ry="6.0" x="482.0" y="338.0" width="56.0" height="52.0" class="key"/>
<use href="#line_up" x="501.0" y="355.0" height="18" width="18.0" class="tap glyph line_up"/>
<rect rx="6.0" ry="6.0" x="542.0" y="338.0" width="56.0" height="52.0" class="key"/>
<use href="#end" x="561.0" y="355.0" height="18" width="18.0" class="tap glyph end"/>
<text x="570.0" y="340.0" class="shifted">END</text>
<rect rx="6.0" ry="6.0" x="602.0" y="338.0" width="56.0" height="52.0" class="key"/>
<text x="630.0" y="364.0" class="tap">
<tspan x="630.0" dy="-0.6em">PG</tspan><tspan x="630.0" dy="1.2em">UP</tspan></text>
<rect rx="6.0" ry="6.0" x="32.0" y="394.0" width="56.0" height="52.0" class="key"/>
<text x="60.0" y="420.0" class="tap">C-A-D</text>
<rect rx="6.0" ry="6.0" x="92.0" y="394.0" width="56.0" height="52.0" class="key"/>
<text x="120.0" y="420.0" class="tap">Alt</text>
<rect rx="6.0" ry="6.0" x="152.0" y="394.0" width="56.0" height="52.0" class="key"/>
<text x="180.0" y="420.0" class="tap">Shift</text>
<rect rx="6.0" ry="6.0" x="212.0" y="394.0" width="56.0" height="52.0" class="key"/>
<text x="240.0" y="420.0" class="tap">Ctrl</text>
<rect rx="6.0" ry="6.0" x="272.0" y="422.0" width="56.0" height="52.0" class="key"/>
<rect rx="6.0" ry="6.0" x="362.0" y="422.0" width="56.0" height="52.0" class="key"/>
<use href="#left_arrow" x="381.0" y="439.0" height="18" width="18.0" class="tap glyph left_arrow"/>
<rect rx="6.0" ry="6.0" x="422.0" y="394.0" width="56.0" height="52.0" class="key"/>
<use href="#down_arrow" x="441.0" y="411.0" height="18" width="18.0" class="tap glyph down_arrow"/>
<rect rx="6.0" ry="6.0" x="482.0" y="394.0" width="56.0" height="52.0" class="key"/>
<use href="#up_arrow" x="501.0" y="411.0" height="18" width="18.0" class="tap glyph up_arrow"/>
<rect rx="6.0" ry="6.0" x="542.0" y="394.0" width="56.0" height="52.0" class="key"/>
<use href="#right_arrow" x="561.0" y="411.0" height="18" width="18.0" class="tap glyph right_arrow"/>
<rect rx="6.0" ry="6.0" x="602.0" y="394.0" width="56.0" height="52.0" class="key"/>
<text x="630.0" y="420.0" class="tap">
<tspan x="630.0" dy="-0.6em">PG</tspan><tspan x="630.0" dy="1.2em">DN</tspan></text>
<rect rx="6.0" ry="6.0" x="32.0" y="450.0" width="56.0" height="52.0" class="key"/>
<text x="60.0" y="476.0" class="tap">Undo</text>
<rect rx="6.0" ry="6.0" x="92.0" y="450.0" width="56.0" height="52.0" class="key"/>
<text x="120.0" y="476.0" class="tap">Cut</text>
<rect rx="6.0" ry="6.0" x="152.0" y="450.0" width="56.0" height="52.0" class="key"/>
<text x="180.0" y="476.0" class="tap">Copy</text>
<rect rx="6.0" ry="6.0" x="212.0" y="450.0" width="56.0" height="52.0" class="key"/>
<text x="240.0" y="476.0" class="tap">Paste</text>
<rect rx="6.0" ry="6.0" x="422.0" y="450.0" width="56.0" height="52.0" class="key"/>
<use href="#copy_down" x="441.0" y="467.0" height="18" width="18.0" class="tap glyph copy_down"/>
<text x="450.0" y="452.0" class="shifted">Copy Down</text>
<rect rx="6.0" ry="6.0" x="482.0" y="450.0" width="56.0" height="52.0" class="key"/>
<text x="510.0" y="476.0" class="tap">
<tspan x="510.0" dy="-0.6em">Select</tspan><tspan x="510.0" dy="1.2em">Line</tspan></text>
<rect rx="6.0" ry="6.0" x="542.0" y="450.0" width="56.0" height="52.0" class="key"/>
<rect rx="6.0" ry="6.0" x="602.0" y="450.0" width="56.0" height="52.0" class="key"/>
<text x="630.0" y="476.0" class="tap">
<tspan x="630.0" dy="-0.6em">Cursor</tspan><tspan x="630.0" dy="1.2em">Ins</tspan></text>
<rect rx="6.0" ry="6.0" x="212.0" y="506.0" width="56.0" height="52.0" class="held key"/>
<rect rx="6.0" ry="6.0" x="272.0" y="506.0" width="56.0" height="52.0" class="key"/>
<rect rx="6.0" ry="6.0" x="362.0" y="506.0" width="56.0" height="52.0" class="key"/>
<use href="#space" x="381.0" y="523.0" height="18" width="18.0" class="tap glyph space"/>
<rect rx="6.0" ry="6.0" x="422.0" y="506.0" width="56.0" height="52.0" class="key"/>
<use href="#bspc" x="441.0" y="523.0" height="18" width="18.0" class="tap glyph bspc"/>
<path d="M359.0,420.0 v-22.0 a6.0,6.0 0 0 1 6.0,-6.0 h5.0" class="combo"/>
<path d="M359.0,420.0 v22.0 a6.0,6.0 0 0 0 6.0,6.0 h5.0" class="combo"/>
<rect rx="6.0" ry="6.0" x="345.0" y="407.0" width="28.0" height="26.0" class="combo"/>
<text x="359.0" y="420.0" class="combo tap">
<tspan x="359.0" dy="-0.6em">Line</tspan><tspan x="359.0" dy="1.2em">Comment</tspan></text>
</g>
<g class="layer-Sym">
<text x="30.0" y="588.0" class="label">Sym:</text>
<rect rx="6.0" ry="6.0" x="32.0" y="618.0" width="56.0" height="52.0" class="key"/>
<text x="60.0" y="644.0" class="tap">!</text>
<rect rx="6.0" ry="6.0" x="92.0" y="618.0" width="56.0" height="52.0" class="key"/>
<text x="120.0" y="644.0" class="tap">@</text>
<rect rx="6.0" ry="6.0" x="152.0" y="618.0" width="56.0" height="52.0" class="key"/>
<text x="180.0" y="644.0" class="tap">#</text>
<rect rx="6.0" ry="6.0" x="212.0" y="618.0" width="56.0" height="52.0" class="key"/>
<text x="240.0" y="644.0" class="tap">$</text>
<rect rx="6.0" ry="6.0" x="272.0" y="646.0" width="56.0" height="52.0" class="key"/>
<text x="300.0" y="672.0" class="tap">%</text>
<rect rx="6.0" ry="6.0" x="362.0" y="646.0" width="56.0" height="52.0" class="key"/>
<text x="390.0" y="672.0" class="tap">^</text>
<rect rx="6.0" ry="6.0" x="422.0" y="618.0" width="56.0" height="52.0" class="key"/>
<text x="450.0" y="644.0" class="tap">&amp;</text>
<rect rx="6.0" ry="6.0" x="482.0" y="618.0" width="56.0" height="52.0" class="key"/>
<text x="510.0" y="644.0" class="tap">*</text>
<rect rx="6.0" ry="6.0" x="542.0" y="618.0" width="56.0" height="52.0" class="key"/>
<use href="#PrtScr" x="561.0" y="635.0" height="18" width="18.0" class="tap glyph PrtScr"/>
<rect rx="6.0" ry="6.0" x="602.0" y="618.0" width="56.0" height="52.0" class="key"/>
<use href="#bspc" x="621.0" y="635.0" height="18" width="18.0" class="tap glyph bspc"/>
<rect rx="6.0" ry="6.0" x="32.0" y="674.0" width="56.0" height="52.0" class="key"/>
<text x="60.0" y="700.0" class="tap">MUTE</text>
<rect rx="6.0" ry="6.0" x="92.0" y="674.0" width="56.0" height="52.0" class="key"/>
<text x="120.0" y="700.0" class="tap">
<tspan x="120.0" dy="-0.6em">VOL</tspan><tspan x="120.0" dy="1.2em">DN</tspan></text>
<rect rx="6.0" ry="6.0" x="152.0" y="674.0" width="56.0" height="52.0" class="key"/>
<text x="180.0" y="700.0" class="tap">
<tspan x="180.0" dy="-0.6em">VOL</tspan><tspan x="180.0" dy="1.2em">UP</tspan></text>
<rect rx="6.0" ry="6.0" x="212.0" y="674.0" width="56.0" height="52.0" class="key"/>
<text x="240.0" y="700.0" class="tap">~</text>
<rect rx="6.0" ry="6.0" x="272.0" y="702.0" width="56.0" height="52.0" class="key"/>
<text x="300.0" y="728.0" class="tap">`</text>
<rect rx="6.0" ry="6.0" x="362.0" y="702.0" width="56.0" height="52.0" class="key"/>
<rect rx="6.0" ry="6.0" x="422.0" y="674.0" width="56.0" height="52.0" class="key"/>
<text x="450.0" y="700.0" class="tap">=</text>
<rect rx="6.0" ry="6.0" x="482.0" y="674.0" width="56.0" height="52.0" class="key"/>
<text x="510.0" y="700.0" class="tap">&lt;</text>
<rect rx="6.0" ry="6.0" x="542.0" y="674.0" width="56.0" height="52.0" class="key"/>
<text x="570.0" y="700.0" class="tap">&gt;</text>
<rect rx="6.0" ry="6.0" x="602.0" y="674.0" width="56.0" height="52.0" class="key"/>
<text x="630.0" y="700.0" class="tap">`</text>
<rect rx="6.0" ry="6.0" x="32.0" y="730.0" width="56.0" height="52.0" class="key"/>
<rect rx="6.0" ry="6.0" x="92.0" y="730.0" width="56.0" height="52.0" class="key"/>
<rect rx="6.0" ry="6.0" x="152.0" y="730.0" width="56.0" height="52.0" class="key"/>
<rect rx="6.0" ry="6.0" x="212.0" y="730.0" width="56.0" height="52.0" class="key"/>
<rect rx="6.0" ry="6.0" x="422.0" y="730.0" width="56.0" height="52.0" class="key"/>
<text x="450.0" y="756.0" class="tap">+</text>
<rect rx="6.0" ry="6.0" x="482.0" y="730.0" width="56.0" height="52.0" class="key"/>
<rect rx="6.0" ry="6.0" x="542.0" y="730.0" width="56.0" height="52.0" class="key"/>
<rect rx="6.0" ry="6.0" x="602.0" y="730.0" width="56.0" height="52.0" class="key"/>
<rect rx="6.0" ry="6.0" x="212.0" y="786.0" width="56.0" height="52.0" class="key"/>
<rect rx="6.0" ry="6.0" x="272.0" y="786.0" width="56.0" height="52.0" class="key"/>
<rect rx="6.0" ry="6.0" x="362.0" y="786.0" width="56.0" height="52.0" class="key"/>
<rect rx="6.0" ry="6.0" x="422.0" y="786.0" width="56.0" height="52.0" class="held key"/>
</g>
<g class="layer-Num">
<text x="30.0" y="868.0" class="label">Num:</text>
<rect rx="6.0" ry="6.0" x="32.0" y="898.0" width="56.0" height="52.0" class="key"/>
<text x="60.0" y="924.0" class="tap">F1</text>
<rect rx="6.0" ry="6.0" x="92.0" y="898.0" width="56.0" height="52.0" class="key"/>
<text x="120.0" y="924.0" class="tap">F2</text>
<rect rx="6.0" ry="6.0" x="152.0" y="898.0" width="56.0" height="52.0" class="key"/>
<text x="180.0" y="924.0" class="tap">F3</text>
<rect rx="6.0" ry="6.0" x="212.0" y="898.0" width="56.0" height="52.0" class="key"/>
<text x="240.0" y="924.0" class="tap">F4</text>
<rect rx="6.0" ry="6.0" x="272.0" y="926.0" width="56.0" height="52.0" class="key"/>
<text x="300.0" y="952.0" class="tap">F5</text>
<rect rx="6.0" ry="6.0" x="362.0" y="926.0" width="56.0" height="52.0" class="key"/>
<text x="390.0" y="952.0" class="tap">0</text>
<rect rx="6.0" ry="6.0" x="422.0" y="898.0" width="56.0" height="52.0" class="key"/>
<text x="450.0" y="924.0" class="tap">1</text>
<rect rx="6.0" ry="6.0" x="482.0" y="898.0" width="56.0" height="52.0" class="key"/>
<text x="510.0" y="924.0" class="tap">2</text>
<rect rx="6.0" ry="6.0" x="542.0" y="898.0" width="56.0" height="52.0" class="key"/>
<text x="570.0" y="924.0" class="tap">3</text>
<rect rx="6.0" ry="6.0" x="602.0" y="898.0" width="56.0" height="52.0" class="key"/>
<use href="#bspc" x="621.0" y="915.0" height="18" width="18.0" class="tap glyph bspc"/>
<rect rx="6.0" ry="6.0" x="32.0" y="954.0" width="56.0" height="52.0" class="key"/>
<text x="60.0" y="980.0" class="tap">F6</text>
<rect rx="6.0" ry="6.0" x="92.0" y="954.0" width="56.0" height="52.0" class="key"/>
<text x="120.0" y="980.0" class="tap">F7</text>
<rect rx="6.0" ry="6.0" x="152.0" y="954.0" width="56.0" height="52.0" class="key"/>
<text x="180.0" y="980.0" class="tap">F8</text>
<rect rx="6.0" ry="6.0" x="212.0" y="954.0" width="56.0" height="52.0" class="key"/>
<text x="240.0" y="980.0" class="tap">F9</text>
<rect rx="6.0" ry="6.0" x="272.0" y="982.0" width="56.0" height="52.0" class="key"/>
<text x="300.0" y="1008.0" class="tap">F10</text>
<rect rx="6.0" ry="6.0" x="362.0" y="982.0" width="56.0" height="52.0" class="key"/>
<text x="390.0" y="1008.0" class="tap">.</text>
<rect rx="6.0" ry="6.0" x="422.0" y="954.0" width="56.0" height="52.0" class="key"/>
<text x="450.0" y="980.0" class="tap">4</text>
<rect rx="6.0" ry="6.0" x="482.0" y="954.0" width="56.0" height="52.0" class="key"/>
<text x="510.0" y="980.0" class="tap">5</text>
<rect rx="6.0" ry="6.0" x="542.0" y="954.0" width="56.0" height="52.0" class="key"/>
<text x="570.0" y="980.0" class="tap">6</text>
<rect rx="6.0" ry="6.0" x="602.0" y="954.0" width="56.0" height="52.0" class="key"/>
<rect rx="6.0" ry="6.0" x="32.0" y="1010.0" width="56.0" height="52.0" class="key"/>
<text x="60.0" y="1036.0" class="tap">F11</text>
<rect rx="6.0" ry="6.0" x="92.0" y="1010.0" width="56.0" height="52.0" class="key"/>
<text x="120.0" y="1036.0" class="tap">F12</text>
<rect rx="6.0" ry="6.0" x="152.0" y="1010.0" width="56.0" height="52.0" class="key"/>
<rect rx="6.0" ry="6.0" x="212.0" y="1010.0" width="56.0" height="52.0" class="key"/>
<rect rx="6.0" ry="6.0" x="422.0" y="1010.0" width="56.0" height="52.0" class="key"/>
<text x="450.0" y="1036.0" class="tap">7</text>
<rect rx="6.0" ry="6.0" x="482.0" y="1010.0" width="56.0" height="52.0" class="key"/>
<text x="510.0" y="1036.0" class="tap">8</text>
<rect rx="6.0" ry="6.0" x="542.0" y="1010.0" width="56.0" height="52.0" class="key"/>
<text x="570.0" y="1036.0" class="tap">9</text>
<rect rx="6.0" ry="6.0" x="602.0" y="1010.0" width="56.0" height="52.0" class="key"/>
<rect rx="6.0" ry="6.0" x="212.0" y="1066.0" width="56.0" height="52.0" class="held key"/>
<rect rx="6.0" ry="6.0" x="272.0" y="1066.0" width="56.0" height="52.0" class="held key"/>
<rect rx="6.0" ry="6.0" x="362.0" y="1066.0" width="56.0" height="52.0" class="key"/>
<rect rx="6.0" ry="6.0" x="422.0" y="1066.0" width="56.0" height="52.0" class="key"/>
<use href="#bspc" x="441.0" y="1083.0" height="18" width="18.0" class="tap glyph bspc"/>
</g>
<g class="layer-BT">
<text x="30.0" y="1148.0" class="label">BT:</text>
<rect rx="6.0" ry="6.0" x="32.0" y="1178.0" width="56.0" height="52.0" class="held key"/>
<rect rx="6.0" ry="6.0" x="92.0" y="1178.0" width="56.0" height="52.0" class="key"/>
<rect rx="6.0" ry="6.0" x="152.0" y="1178.0" width="56.0" height="52.0" class="key"/>
<rect rx="6.0" ry="6.0" x="212.0" y="1178.0" width="56.0" height="52.0" class="key"/>
<rect rx="6.0" ry="6.0" x="272.0" y="1206.0" width="56.0" height="52.0" class="held key"/>
<rect rx="6.0" ry="6.0" x="362.0" y="1206.0" width="56.0" height="52.0" class="key"/>
<text x="390.0" y="1232.0" class="tap">
<tspan x="390.0" dy="-0.6em">BT</tspan><tspan x="390.0" dy="1.2em">0</tspan></text>
<rect rx="6.0" ry="6.0" x="422.0" y="1178.0" width="56.0" height="52.0" class="key"/>
<text x="450.0" y="1204.0" class="tap">
<tspan x="450.0" dy="-0.6em">BT</tspan><tspan x="450.0" dy="1.2em">1</tspan></text>
<rect rx="6.0" ry="6.0" x="482.0" y="1178.0" width="56.0" height="52.0" class="key"/>
<text x="510.0" y="1204.0" class="tap">
<tspan x="510.0" dy="-0.6em">BT</tspan><tspan x="510.0" dy="1.2em">2</tspan></text>
<rect rx="6.0" ry="6.0" x="542.0" y="1178.0" width="56.0" height="52.0" class="key"/>
<text x="570.0" y="1204.0" class="tap">
<tspan x="570.0" dy="-0.6em">BT</tspan><tspan x="570.0" dy="1.2em">3</tspan></text>
<rect rx="6.0" ry="6.0" x="602.0" y="1178.0" width="56.0" height="52.0" class="key"/>
<rect rx="6.0" ry="6.0" x="32.0" y="1234.0" width="56.0" height="52.0" class="key"/>
<rect rx="6.0" ry="6.0" x="92.0" y="1234.0" width="56.0" height="52.0" class="key"/>
<rect rx="6.0" ry="6.0" x="152.0" y="1234.0" width="56.0" height="52.0" class="key"/>
<rect rx="6.0" ry="6.0" x="212.0" y="1234.0" width="56.0" height="52.0" class="key"/>
<rect rx="6.0" ry="6.0" x="272.0" y="1262.0" width="56.0" height="52.0" class="key"/>
<use href="#reset" x="291.0" y="1279.0" height="18" width="18.0" class="tap glyph reset"/>
<text x="300.0" y="1264.0" class="shifted">reset</text>
<rect rx="6.0" ry="6.0" x="362.0" y="1262.0" width="56.0" height="52.0" class="key"/>
<rect rx="6.0" ry="6.0" x="422.0" y="1234.0" width="56.0" height="52.0" class="key"/>
<rect rx="6.0" ry="6.0" x="482.0" y="1234.0" width="56.0" height="52.0" class="key"/>
<rect rx="6.0" ry="6.0" x="542.0" y="1234.0" width="56.0" height="52.0" class="key"/>
<rect rx="6.0" ry="6.0" x="602.0" y="1234.0" width="56.0" height="52.0" class="key"/>
<rect rx="6.0" ry="6.0" x="32.0" y="1290.0" width="56.0" height="52.0" class="key"/>
<rect rx="6.0" ry="6.0" x="92.0" y="1290.0" width="56.0" height="52.0" class="key"/>
<rect rx="6.0" ry="6.0" x="152.0" y="1290.0" width="56.0" height="52.0" class="key"/>
<rect rx="6.0" ry="6.0" x="212.0" y="1290.0" width="56.0" height="52.0" class="key"/>
<rect rx="6.0" ry="6.0" x="422.0" y="1290.0" width="56.0" height="52.0" class="key"/>
<text x="450.0" y="1316.0" class="tap">
<tspan x="450.0" dy="-0.6em">OUT</tspan><tspan x="450.0" dy="1.2em">USB</tspan></text>
<rect rx="6.0" ry="6.0" x="482.0" y="1290.0" width="56.0" height="52.0" class="key"/>
<text x="510.0" y="1316.0" class="tap">
<tspan x="510.0" dy="-0.6em">OUT</tspan><tspan x="510.0" dy="1.2em">BLE</tspan></text>
<rect rx="6.0" ry="6.0" x="542.0" y="1290.0" width="56.0" height="52.0" class="key"/>
<rect rx="6.0" ry="6.0" x="602.0" y="1290.0" width="56.0" height="52.0" class="key"/>
<text x="630.0" y="1316.0" class="tap">
<tspan x="630.0" dy="-0.6em">BT</tspan><tspan x="630.0" dy="1.2em">CLR</tspan></text>
<rect rx="6.0" ry="6.0" x="212.0" y="1346.0" width="56.0" height="52.0" class="key"/>
<rect rx="6.0" ry="6.0" x="272.0" y="1346.0" width="56.0" height="52.0" class="key"/>
<rect rx="6.0" ry="6.0" x="362.0" y="1346.0" width="56.0" height="52.0" class="key"/>
<rect rx="6.0" ry="6.0" x="422.0" y="1346.0" width="56.0" height="52.0" class="key"/>
</g>
</svg>
