<svg width="690.0" height="1176.0" viewBox="0 0 690.0 1176.0" xmlns="http://www.w3.org/2000/svg">
<style>/* font and background color specifications */
svg {
    font-family: SFMono-Regular,Consolas,Liberation Mono,Menlo,monospace;
    font-size: 14px;
    font-kerning: normal;
    text-rendering: optimizeLegibility;
    fill: #24292e;
}

/* default key styling */
rect {
    fill: #f6f8fa;
    stroke: #c9cccf;
    stroke-width: 1;
}

/* color accent for combo boxes */
rect.combo {
    fill: #cdf;
}

/* color accent for held keys */
rect.held, rect.combo.held {
    fill: #fdd;
}

/* color accent for ghost (optional) keys */
rect.ghost, rect.combo.ghost {
    fill: #ddd;
}

text {
    text-anchor: middle;
    dominant-baseline: middle;
}

/* styling for layer labels */
text.label {
    font-weight: bold;
    text-anchor: start;
    stroke: white;
    stroke-width: 2;
    paint-order: stroke;
}

/* styling for combo tap, and key hold/shifted label text */
text.combo, text.hold, text.shifted {
    font-size: 11px;
}

text.hold {
    text-anchor: middle;
    dominant-baseline: auto;
}

text.shifted {
    text-anchor: middle;
    dominant-baseline: hanging;
}

/* styling for hold/shifted label text in combo box */
text.combo.hold, text.combo.shifted {
    font-size: 8px;
}

/* styling for combo dendrons */
path {
    stroke-width: 1;
    stroke: gray;
    fill: none;
}
</style>
<g class="layer-default_layer">
<text x="30.0" y="28.0" class="label">default_layer:</text>
<rect rx="6.0" ry="6.0" x="32.0" y="58.0" width="56.0" height="52.0" class=""/>
<text x="60.0" y="84.0" class="tap">Q</text>
<rect rx="6.0" ry="6.0" x="92.0" y="58.0" width="56.0" height="52.0" class=""/>
<text x="120.0" y="84.0" class="tap">W</text>
<rect rx="6.0" ry="6.0" x="152.0" y="58.0" width="56.0" height="52.0" class=""/>
<text x="180.0" y="84.0" class="tap">F</text>
<rect rx="6.0" ry="6.0" x="212.0" y="58.0" width="56.0" height="52.0" class=""/>
<text x="240.0" y="84.0" class="tap">P</text>
<rect rx="6.0" ry="6.0" x="272.0" y="86.0" width="56.0" height="52.0" class=""/>
<text x="300.0" y="112.0" class="tap">B</text>
<rect rx="6.0" ry="6.0" x="362.0" y="86.0" width="56.0" height="52.0" class=""/>
<text x="390.0" y="112.0" class="tap">J</text>
<rect rx="6.0" ry="6.0" x="422.0" y="58.0" width="56.0" height="52.0" class=""/>
<text x="450.0" y="84.0" class="tap">L</text>
<rect rx="6.0" ry="6.0" x="482.0" y="58.0" width="56.0" height="52.0" class=""/>
<text x="510.0" y="84.0" class="tap">U</text>
<rect rx="6.0" ry="6.0" x="542.0" y="58.0" width="56.0" height="52.0" class=""/>
<text x="570.0" y="84.0" class="tap">Y</text>
<rect rx="6.0" ry="6.0" x="602.0" y="58.0" width="56.0" height="52.0" class=""/>
<text x="630.0" y="84.0" class="tap">&#x27;</text>
<rect rx="6.0" ry="6.0" x="32.0" y="114.0" width="56.0" height="52.0" class=""/>
<text x="60.0" y="140.0" class="tap">A</text>
<text x="60.0" y="164.0" class="hold">Sel All</text>
<rect rx="6.0" ry="6.0" x="92.0" y="114.0" width="56.0" height="52.0" class=""/>
<text x="120.0" y="140.0" class="tap">R</text>
<rect rx="6.0" ry="6.0" x="152.0" y="114.0" width="56.0" height="52.0" class=""/>
<text x="180.0" y="140.0" class="tap">S</text>
<rect rx="6.0" ry="6.0" x="212.0" y="114.0" width="56.0" height="52.0" class=""/>
<text x="240.0" y="140.0" class="tap">T</text>
<rect rx="6.0" ry="6.0" x="272.0" y="142.0" width="56.0" height="52.0" class=""/>
<text x="300.0" y="168.0" class="tap">G</text>
<rect rx="6.0" ry="6.0" x="362.0" y="142.0" width="56.0" height="52.0" class=""/>
<text x="390.0" y="168.0" class="tap">M</text>
<rect rx="6.0" ry="6.0" x="422.0" y="114.0" width="56.0" height="52.0" class=""/>
<text x="450.0" y="140.0" class="tap">N</text>
<text x="450.0" y="164.0" class="hold">CTRL</text>
<rect rx="6.0" ry="6.0" x="482.0" y="114.0" width="56.0" height="52.0" class=""/>
<text x="510.0" y="140.0" class="tap">E</text>
<rect rx="6.0" ry="6.0" x="542.0" y="114.0" width="56.0" height="52.0" class=""/>
<text x="570.0" y="140.0" class="tap">I</text>
<rect rx="6.0" ry="6.0" x="602.0" y="114.0" width="56.0" height="52.0" class=""/>
<text x="630.0" y="140.0" class="tap">O</text>
<rect rx="6.0" ry="6.0" x="32.0" y="170.0" width="56.0" height="52.0" class=""/>
<text x="60.0" y="196.0" class="tap">Z</text>
<text x="60.0" y="220.0" class="hold">Undo</text>
<rect rx="6.0" ry="6.0" x="92.0" y="170.0" width="56.0" height="52.0" class=""/>
<text x="120.0" y="196.0" class="tap">V</text>
<text x="120.0" y="220.0" class="hold">Cut</text>
<rect rx="6.0" ry="6.0" x="152.0" y="170.0" width="56.0" height="52.0" class=""/>
<text x="180.0" y="196.0" class="tap">C</text>
<text x="180.0" y="220.0" class="hold">Copy</text>
<rect rx="6.0" ry="6.0" x="212.0" y="170.0" width="56.0" height="52.0" class=""/>
<text x="240.0" y="196.0" class="tap">D</text>
<text x="240.0" y="220.0" class="hold">Paste</text>
<rect rx="6.0" ry="6.0" x="422.0" y="170.0" width="56.0" height="52.0" class=""/>
<text x="450.0" y="196.0" class="tap">H</text>
<rect rx="6.0" ry="6.0" x="482.0" y="170.0" width="56.0" height="52.0" class=""/>
<text x="510.0" y="196.0" class="tap">,</text>
<rect rx="6.0" ry="6.0" x="542.0" y="170.0" width="56.0" height="52.0" class=""/>
<text x="570.0" y="196.0" class="tap">.</text>
<rect rx="6.0" ry="6.0" x="602.0" y="170.0" width="56.0" height="52.0" class=""/>
<text x="630.0" y="196.0" class="tap">?</text>
<rect rx="6.0" ry="6.0" x="212.0" y="226.0" width="56.0" height="52.0" class=""/>
<text x="240.0" y="252.0" class="tap">Nav</text>
<rect rx="6.0" ry="6.0" x="272.0" y="226.0" width="56.0" height="52.0" class=""/>
<text x="300.0" y="252.0" class="tap">LSHIFT</text>
<text x="300.0" y="276.0" class="hold">sticky</text>
<rect rx="6.0" ry="6.0" x="362.0" y="226.0" width="56.0" height="52.0" class=""/>
<text x="390.0" y="252.0" class="tap">SPACE</text>
<text x="390.0" y="276.0" class="hold">RSHFT</text>
<rect rx="6.0" ry="6.0" x="422.0" y="226.0" width="56.0" height="52.0" class=""/>
<text x="450.0" y="252.0" class="tap">BkSpc</text>
<text x="450.0" y="276.0" class="hold">Sym</text>
<rect rx="6.0" ry="6.0" x="136.0" y="71.0" width="28.0" height="26.0" class="combo"/>
<text x="150.0" y="84.0" class="combo">ESC</text>
<rect rx="6.0" ry="6.0" x="526.0" y="127.0" width="28.0" height="26.0" class="combo"/>
<text x="540.0" y="140.0" class="combo">ENTER</text>
<rect rx="6.0" ry="6.0" x="136.0" y="127.0" width="28.0" height="26.0" class="combo"/>
<text x="150.0" y="140.0" class="combo">TAB</text>
<rect rx="6.0" ry="6.0" x="76.0" y="183.0" width="28.0" height="26.0" class="combo"/>
<text x="90.0" y="196.0" class="combo">WIN</text>
<rect rx="6.0" ry="6.0" x="466.0" y="127.0" width="28.0" height="26.0" class="combo"/>
<text x="480.0" y="140.0" class="combo">-</text>
<rect rx="6.0" ry="6.0" x="106.0" y="99.0" width="28.0" height="26.0" class="combo"/>
<text x="120.0" y="112.0" class="combo">(</text>
<rect rx="6.0" ry="6.0" x="166.0" y="99.0" width="28.0" height="26.0" class="combo"/>
<text x="180.0" y="112.0" class="combo">[</text>
<rect rx="6.0" ry="6.0" x="226.0" y="99.0" width="28.0" height="26.0" class="combo"/>
<text x="240.0" y="112.0" class="combo">{</text>
<rect rx="6.0" ry="6.0" x="556.0" y="99.0" width="28.0" height="26.0" class="combo"/>
<text x="570.0" y="112.0" class="combo">)</text>
<rect rx="6.0" ry="6.0" x="496.0" y="99.0" width="28.0" height="26.0" class="combo"/>
<text x="510.0" y="112.0" class="combo">]</text>
<rect rx="6.0" ry="6.0" x="436.0" y="99.0" width="28.0" height="26.0" class="combo"/>
<text x="450.0" y="112.0" class="combo">}</text>
<rect rx="6.0" ry="6.0" x="466.0" y="183.0" width="28.0" height="26.0" class="combo"/>
<text x="480.0" y="196.0" class="combo">\</text>
<rect rx="6.0" ry="6.0" x="526.0" y="183.0" width="28.0" height="26.0" class="combo"/>
<text x="540.0" y="196.0" class="combo">/</text>
<rect rx="6.0" ry="6.0" x="586.0" y="183.0" width="28.0" height="26.0" class="combo"/>
<text x="600.0" y="196.0" class="combo">|</text>
<rect rx="6.0" ry="6.0" x="136.0" y="183.0" width="28.0" height="26.0" class="combo"/>
<text x="150.0" y="196.0" class="combo">X</text>
<rect rx="6.0" ry="6.0" x="286.0" y="127.0" width="28.0" height="26.0" class="combo"/>
<text x="300.0" y="140.0" class="combo">K</text>
</g>
<g class="layer-Nav">
<text x="30.0" y="308.0" class="label">Nav:</text>
<rect rx="6.0" ry="6.0" x="32.0" y="338.0" width="56.0" height="52.0" class=""/>
<text x="60.0" y="364.0" class="tap">1</text>
<text x="60.0" y="388.0" class="hold">!</text>
<rect rx="6.0" ry="6.0" x="92.0" y="338.0" width="56.0" height="52.0" class=""/>
<text x="120.0" y="364.0" class="tap">2</text>
<text x="120.0" y="388.0" class="hold">@</text>
<rect rx="6.0" ry="6.0" x="152.0" y="338.0" width="56.0" height="52.0" class=""/>
<text x="180.0" y="364.0" class="tap">3</text>
<text x="180.0" y="388.0" class="hold">#</text>
<rect rx="6.0" ry="6.0" x="212.0" y="338.0" width="56.0" height="52.0" class=""/>
<text x="240.0" y="364.0" class="tap">
<tspan x="240.0" dy="-1.2em">VS</tspan><tspan x="240.0" dy="1.2em">Cursor</tspan><tspan x="240.0" dy="1.2em">Ins</tspan></text>
<rect rx="6.0" ry="6.0" x="272.0" y="366.0" width="56.0" height="52.0" class=""/>
<rect rx="6.0" ry="6.0" x="362.0" y="366.0" width="56.0" height="52.0" class=""/>
<text x="390.0" y="392.0" class="tap">HOME</text>
<rect rx="6.0" ry="6.0" x="422.0" y="338.0" width="56.0" height="52.0" class=""/>
<text x="450.0" y="364.0" class="tap">
<tspan x="450.0" dy="-1.2em">VS</tspan><tspan x="450.0" dy="1.2em">Line</tspan><tspan x="450.0" dy="1.2em">Up</tspan></text>
<rect rx="6.0" ry="6.0" x="482.0" y="338.0" width="56.0" height="52.0" class=""/>
<text x="510.0" y="364.0" class="tap">
<tspan x="510.0" dy="-1.2em">VS</tspan><tspan x="510.0" dy="1.2em">Line</tspan><tspan x="510.0" dy="1.2em">Down</tspan></text>
<rect rx="6.0" ry="6.0" x="542.0" y="338.0" width="56.0" height="52.0" class=""/>
<text x="570.0" y="364.0" class="tap">END</text>
<rect rx="6.0" ry="6.0" x="602.0" y="338.0" width="56.0" height="52.0" class=""/>
<text x="630.0" y="364.0" class="tap">BkSpc</text>
<rect rx="6.0" ry="6.0" x="32.0" y="394.0" width="56.0" height="52.0" class=""/>
<text x="60.0" y="420.0" class="tap">
<tspan x="60.0" dy="-1.2em">Ctrl</tspan><tspan x="60.0" dy="1.2em">Alt</tspan><tspan x="60.0" dy="1.2em">Del</tspan></text>
<rect rx="6.0" ry="6.0" x="92.0" y="394.0" width="56.0" height="52.0" class=""/>
<text x="120.0" y="420.0" class="tap">LALT</text>
<rect rx="6.0" ry="6.0" x="152.0" y="394.0" width="56.0" height="52.0" class=""/>
<text x="180.0" y="420.0" class="tap">LSHFT</text>
<rect rx="6.0" ry="6.0" x="212.0" y="394.0" width="56.0" height="52.0" class=""/>
<text x="240.0" y="420.0" class="tap">LCTRL</text>
<rect rx="6.0" ry="6.0" x="272.0" y="422.0" width="56.0" height="52.0" class=""/>
<rect rx="6.0" ry="6.0" x="362.0" y="422.0" width="56.0" height="52.0" class=""/>
<text x="390.0" y="448.0" class="tap">LEFT</text>
<rect rx="6.0" ry="6.0" x="422.0" y="394.0" width="56.0" height="52.0" class=""/>
<text x="450.0" y="420.0" class="tap">DOWN</text>
<rect rx="6.0" ry="6.0" x="482.0" y="394.0" width="56.0" height="52.0" class=""/>
<text x="510.0" y="420.0" class="tap">UP</text>
<rect rx="6.0" ry="6.0" x="542.0" y="394.0" width="56.0" height="52.0" class=""/>
<text x="570.0" y="420.0" class="tap">RIGHT</text>
<rect rx="6.0" ry="6.0" x="602.0" y="394.0" width="56.0" height="52.0" class=""/>
<rect rx="6.0" ry="6.0" x="32.0" y="450.0" width="56.0" height="52.0" class=""/>
<rect rx="6.0" ry="6.0" x="92.0" y="450.0" width="56.0" height="52.0" class=""/>
<rect rx="6.0" ry="6.0" x="152.0" y="450.0" width="56.0" height="52.0" class=""/>
<rect rx="6.0" ry="6.0" x="212.0" y="450.0" width="56.0" height="52.0" class=""/>
<rect rx="6.0" ry="6.0" x="422.0" y="450.0" width="56.0" height="52.0" class=""/>
<text x="450.0" y="476.0" class="tap">
<tspan x="450.0" dy="-1.2em">Copy</tspan><tspan x="450.0" dy="1.2em">Line</tspan><tspan x="450.0" dy="1.2em">Down</tspan></text>
<rect rx="6.0" ry="6.0" x="482.0" y="450.0" width="56.0" height="52.0" class=""/>
<rect rx="6.0" ry="6.0" x="542.0" y="450.0" width="56.0" height="52.0" class=""/>
<rect rx="6.0" ry="6.0" x="602.0" y="450.0" width="56.0" height="52.0" class=""/>
<text x="630.0" y="476.0" class="tap">\</text>
<rect rx="6.0" ry="6.0" x="212.0" y="506.0" width="56.0" height="52.0" class="held"/>
<rect rx="6.0" ry="6.0" x="272.0" y="506.0" width="56.0" height="52.0" class=""/>
<rect rx="6.0" ry="6.0" x="362.0" y="506.0" width="56.0" height="52.0" class=""/>
<rect rx="6.0" ry="6.0" x="422.0" y="506.0" width="56.0" height="52.0" class=""/>
<rect rx="6.0" ry="6.0" x="136.0" y="351.0" width="28.0" height="26.0" class="combo"/>
<text x="150.0" y="364.0" class="combo">ESC</text>
<rect rx="6.0" ry="6.0" x="526.0" y="407.0" width="28.0" height="26.0" class="combo"/>
<text x="540.0" y="420.0" class="combo">ENTER</text>
<rect rx="6.0" ry="6.0" x="136.0" y="407.0" width="28.0" height="26.0" class="combo"/>
<text x="150.0" y="420.0" class="combo">TAB</text>
<rect rx="6.0" ry="6.0" x="376.0" y="407.0" width="28.0" height="26.0" class="combo"/>
<text x="390.0" y="420.0" class="combo">
<tspan x="390.0" dy="-0.6em">Line</tspan><tspan x="390.0" dy="1.2em">Comment</tspan></text>
</g>
<g class="layer-Sym">
<text x="30.0" y="588.0" class="label">Sym:</text>
<rect rx="6.0" ry="6.0" x="32.0" y="618.0" width="56.0" height="52.0" class=""/>
<text x="60.0" y="644.0" class="tap">!</text>
<rect rx="6.0" ry="6.0" x="92.0" y="618.0" width="56.0" height="52.0" class=""/>
<text x="120.0" y="644.0" class="tap">@</text>
<rect rx="6.0" ry="6.0" x="152.0" y="618.0" width="56.0" height="52.0" class=""/>
<text x="180.0" y="644.0" class="tap">#</text>
<rect rx="6.0" ry="6.0" x="212.0" y="618.0" width="56.0" height="52.0" class=""/>
<text x="240.0" y="644.0" class="tap">$</text>
<rect rx="6.0" ry="6.0" x="272.0" y="646.0" width="56.0" height="52.0" class=""/>
<text x="300.0" y="672.0" class="tap">%</text>
<rect rx="6.0" ry="6.0" x="362.0" y="646.0" width="56.0" height="52.0" class=""/>
<text x="390.0" y="672.0" class="tap">^</text>
<rect rx="6.0" ry="6.0" x="422.0" y="618.0" width="56.0" height="52.0" class=""/>
<text x="450.0" y="644.0" class="tap">&amp;</text>
<rect rx="6.0" ry="6.0" x="482.0" y="618.0" width="56.0" height="52.0" class=""/>
<text x="510.0" y="644.0" class="tap">*</text>
<rect rx="6.0" ry="6.0" x="542.0" y="618.0" width="56.0" height="52.0" class=""/>
<text x="570.0" y="644.0" class="tap">PrtScr</text>
<rect rx="6.0" ry="6.0" x="602.0" y="618.0" width="56.0" height="52.0" class=""/>
<text x="630.0" y="644.0" class="tap">BkSpc</text>
<rect rx="6.0" ry="6.0" x="32.0" y="674.0" width="56.0" height="52.0" class=""/>
<text x="60.0" y="700.0" class="tap">MUTE</text>
<rect rx="6.0" ry="6.0" x="92.0" y="674.0" width="56.0" height="52.0" class=""/>
<text x="120.0" y="700.0" class="tap">
<tspan x="120.0" dy="-0.6em">VOL</tspan><tspan x="120.0" dy="1.2em">DN</tspan></text>
<rect rx="6.0" ry="6.0" x="152.0" y="674.0" width="56.0" height="52.0" class=""/>
<text x="180.0" y="700.0" class="tap">
<tspan x="180.0" dy="-0.6em">VOL</tspan><tspan x="180.0" dy="1.2em">UP</tspan></text>
<rect rx="6.0" ry="6.0" x="212.0" y="674.0" width="56.0" height="52.0" class=""/>
<text x="240.0" y="700.0" class="tap">~</text>
<rect rx="6.0" ry="6.0" x="272.0" y="702.0" width="56.0" height="52.0" class=""/>
<text x="300.0" y="728.0" class="tap">`</text>
<rect rx="6.0" ry="6.0" x="362.0" y="702.0" width="56.0" height="52.0" class=""/>
<text x="390.0" y="728.0" class="tap">_</text>
<rect rx="6.0" ry="6.0" x="422.0" y="674.0" width="56.0" height="52.0" class=""/>
<text x="450.0" y="700.0" class="tap">=</text>
<rect rx="6.0" ry="6.0" x="482.0" y="674.0" width="56.0" height="52.0" class=""/>
<text x="510.0" y="700.0" class="tap">[</text>
<rect rx="6.0" ry="6.0" x="542.0" y="674.0" width="56.0" height="52.0" class=""/>
<text x="570.0" y="700.0" class="tap">]</text>
<rect rx="6.0" ry="6.0" x="602.0" y="674.0" width="56.0" height="52.0" class=""/>
<text x="630.0" y="700.0" class="tap">|</text>
<rect rx="6.0" ry="6.0" x="32.0" y="730.0" width="56.0" height="52.0" class=""/>
<rect rx="6.0" ry="6.0" x="92.0" y="730.0" width="56.0" height="52.0" class=""/>
<rect rx="6.0" ry="6.0" x="152.0" y="730.0" width="56.0" height="52.0" class=""/>
<rect rx="6.0" ry="6.0" x="212.0" y="730.0" width="56.0" height="52.0" class=""/>
<rect rx="6.0" ry="6.0" x="422.0" y="730.0" width="56.0" height="52.0" class=""/>
<text x="450.0" y="756.0" class="tap">+</text>
<rect rx="6.0" ry="6.0" x="482.0" y="730.0" width="56.0" height="52.0" class=""/>
<text x="510.0" y="756.0" class="tap">&lt;</text>
<rect rx="6.0" ry="6.0" x="542.0" y="730.0" width="56.0" height="52.0" class=""/>
<text x="570.0" y="756.0" class="tap">&gt;</text>
<rect rx="6.0" ry="6.0" x="602.0" y="730.0" width="56.0" height="52.0" class=""/>
<text x="630.0" y="756.0" class="tap">\</text>
<rect rx="6.0" ry="6.0" x="212.0" y="786.0" width="56.0" height="52.0" class=""/>
<rect rx="6.0" ry="6.0" x="272.0" y="786.0" width="56.0" height="52.0" class=""/>
<rect rx="6.0" ry="6.0" x="362.0" y="786.0" width="56.0" height="52.0" class=""/>
<rect rx="6.0" ry="6.0" x="422.0" y="786.0" width="56.0" height="52.0" class="held"/>
<rect rx="6.0" ry="6.0" x="136.0" y="631.0" width="28.0" height="26.0" class="combo"/>
<text x="150.0" y="644.0" class="combo">ESC</text>
<rect rx="6.0" ry="6.0" x="526.0" y="687.0" width="28.0" height="26.0" class="combo"/>
<text x="540.0" y="700.0" class="combo">ENTER</text>
<rect rx="6.0" ry="6.0" x="136.0" y="687.0" width="28.0" height="26.0" class="combo"/>
<text x="150.0" y="700.0" class="combo">TAB</text>
</g>
<g class="layer-Num">
<text x="30.0" y="868.0" class="label">Num:</text>
<rect rx="6.0" ry="6.0" x="32.0" y="898.0" width="56.0" height="52.0" class=""/>
<rect rx="6.0" ry="6.0" x="92.0" y="898.0" width="56.0" height="52.0" class=""/>
<rect rx="6.0" ry="6.0" x="152.0" y="898.0" width="56.0" height="52.0" class=""/>
<text x="180.0" y="924.0" class="tap">F3</text>
<rect rx="6.0" ry="6.0" x="212.0" y="898.0" width="56.0" height="52.0" class=""/>
<text x="240.0" y="924.0" class="tap">F5</text>
<rect rx="6.0" ry="6.0" x="272.0" y="926.0" width="56.0" height="52.0" class=""/>
<text x="300.0" y="952.0" class="tap">F8</text>
<rect rx="6.0" ry="6.0" x="362.0" y="926.0" width="56.0" height="52.0" class=""/>
<text x="390.0" y="952.0" class="tap">0</text>
<rect rx="6.0" ry="6.0" x="422.0" y="898.0" width="56.0" height="52.0" class=""/>
<text x="450.0" y="924.0" class="tap">1</text>
<rect rx="6.0" ry="6.0" x="482.0" y="898.0" width="56.0" height="52.0" class=""/>
<text x="510.0" y="924.0" class="tap">2</text>
<rect rx="6.0" ry="6.0" x="542.0" y="898.0" width="56.0" height="52.0" class=""/>
<text x="570.0" y="924.0" class="tap">3</text>
<rect rx="6.0" ry="6.0" x="602.0" y="898.0" width="56.0" height="52.0" class=""/>
<text x="630.0" y="924.0" class="tap">BkSpc</text>
<rect rx="6.0" ry="6.0" x="32.0" y="954.0" width="56.0" height="52.0" class=""/>
<text x="60.0" y="980.0" class="tap">
<tspan x="60.0" dy="-0.6em">BT</tspan><tspan x="60.0" dy="1.2em">0</tspan></text>
<rect rx="6.0" ry="6.0" x="92.0" y="954.0" width="56.0" height="52.0" class=""/>
<text x="120.0" y="980.0" class="tap">
<tspan x="120.0" dy="-0.6em">BT</tspan><tspan x="120.0" dy="1.2em">1</tspan></text>
<rect rx="6.0" ry="6.0" x="152.0" y="954.0" width="56.0" height="52.0" class=""/>
<text x="180.0" y="980.0" class="tap">
<tspan x="180.0" dy="-0.6em">BT</tspan><tspan x="180.0" dy="1.2em">2</tspan></text>
<rect rx="6.0" ry="6.0" x="212.0" y="954.0" width="56.0" height="52.0" class=""/>
<text x="240.0" y="980.0" class="tap">
<tspan x="240.0" dy="-0.6em">BT</tspan><tspan x="240.0" dy="1.2em">3</tspan></text>
<rect rx="6.0" ry="6.0" x="272.0" y="982.0" width="56.0" height="52.0" class=""/>
<rect rx="6.0" ry="6.0" x="362.0" y="982.0" width="56.0" height="52.0" class=""/>
<text x="390.0" y="1008.0" class="tap">.</text>
<rect rx="6.0" ry="6.0" x="422.0" y="954.0" width="56.0" height="52.0" class=""/>
<text x="450.0" y="980.0" class="tap">4</text>
<rect rx="6.0" ry="6.0" x="482.0" y="954.0" width="56.0" height="52.0" class=""/>
<text x="510.0" y="980.0" class="tap">5</text>
<rect rx="6.0" ry="6.0" x="542.0" y="954.0" width="56.0" height="52.0" class=""/>
<text x="570.0" y="980.0" class="tap">6</text>
<rect rx="6.0" ry="6.0" x="602.0" y="954.0" width="56.0" height="52.0" class=""/>
<rect rx="6.0" ry="6.0" x="32.0" y="1010.0" width="56.0" height="52.0" class=""/>
<text x="60.0" y="1036.0" class="tap">
<tspan x="60.0" dy="-0.6em">BT</tspan><tspan x="60.0" dy="1.2em">CLR</tspan></text>
<rect rx="6.0" ry="6.0" x="92.0" y="1010.0" width="56.0" height="52.0" class=""/>
<rect rx="6.0" ry="6.0" x="152.0" y="1010.0" width="56.0" height="52.0" class=""/>
<rect rx="6.0" ry="6.0" x="212.0" y="1010.0" width="56.0" height="52.0" class=""/>
<rect rx="6.0" ry="6.0" x="422.0" y="1010.0" width="56.0" height="52.0" class=""/>
<text x="450.0" y="1036.0" class="tap">7</text>
<rect rx="6.0" ry="6.0" x="482.0" y="1010.0" width="56.0" height="52.0" class=""/>
<text x="510.0" y="1036.0" class="tap">8</text>
<rect rx="6.0" ry="6.0" x="542.0" y="1010.0" width="56.0" height="52.0" class=""/>
<text x="570.0" y="1036.0" class="tap">9</text>
<rect rx="6.0" ry="6.0" x="602.0" y="1010.0" width="56.0" height="52.0" class=""/>
<rect rx="6.0" ry="6.0" x="212.0" y="1066.0" width="56.0" height="52.0" class="held"/>
<rect rx="6.0" ry="6.0" x="272.0" y="1066.0" width="56.0" height="52.0" class=""/>
<rect rx="6.0" ry="6.0" x="362.0" y="1066.0" width="56.0" height="52.0" class=""/>
<rect rx="6.0" ry="6.0" x="422.0" y="1066.0" width="56.0" height="52.0" class="held"/>
<rect rx="6.0" ry="6.0" x="136.0" y="911.0" width="28.0" height="26.0" class="combo"/>
<text x="150.0" y="924.0" class="combo">ESC</text>
<rect rx="6.0" ry="6.0" x="526.0" y="967.0" width="28.0" height="26.0" class="combo"/>
<text x="540.0" y="980.0" class="combo">ENTER</text>
<rect rx="6.0" ry="6.0" x="136.0" y="967.0" width="28.0" height="26.0" class="combo"/>
<text x="150.0" y="980.0" class="combo">TAB</text>
</g>
</svg>
